<svg width="34" height="24" viewBox="0 0 34 24" fill="none" xmlns="http://www.w3.org/2000/svg">
<path opacity="0.1" d="M24.48 23.4719L31.248 13.2479C32.544 11.3759 33.408 9.50392 33.408 7.19993C33.408 2.73593 30.24 -7.27562e-05 26.496 -7.30835e-05C22.608 -7.34234e-05 19.728 3.02392 19.728 7.19993C19.728 9.64792 20.736 11.9519 22.896 13.1039L18.144 23.4719L24.48 23.4719ZM4.75196 13.1039L-4.19617e-05 23.4719L6.33596 23.4719L13.104 13.2479C14.4 11.3759 15.264 9.50392 15.264 7.19993C15.264 2.73592 12.096 -7.43424e-05 8.35196 -7.46697e-05C4.46396 -7.50096e-05 1.58396 3.02392 1.58396 7.19993C1.58396 9.64792 2.59196 11.9519 4.75196 13.1039Z" fill="black"/>
</svg>
