<svg width="34" height="24" viewBox="0 0 34 24" fill="none" xmlns="http://www.w3.org/2000/svg">
<path opacity="0.1" d="M9.20266 0.191895L2.43466 10.4159C1.13866 12.2879 0.274658 14.1599 0.274658 16.4639C0.274658 20.9279 3.44266 23.6639 7.18666 23.6639C11.0747 23.6639 13.9547 20.6399 13.9547 16.4639C13.9547 14.0159 12.9467 11.7119 10.7867 10.5599L15.5387 0.191895H9.20266ZM28.9307 10.5599L33.6827 0.191895H27.3467L20.5787 10.4159C19.2827 12.2879 18.4187 14.1599 18.4187 16.4639C18.4187 20.9279 21.5867 23.6639 25.3307 23.6639C29.2187 23.6639 32.0987 20.6399 32.0987 16.4639C32.0987 14.0159 31.0907 11.7119 28.9307 10.5599Z" fill="black"/>
</svg>
