<svg width="48" height="36" viewBox="0 0 48 36" fill="none" xmlns="http://www.w3.org/2000/svg">
<path d="M29.9032 13.5H27.2759C27.0967 13.5 26.9437 13.6305 26.9152 13.8082L25.8532 20.5448C25.8322 20.6775 25.9349 20.7975 26.0692 20.7975H27.4169C27.5429 20.7975 27.6494 20.706 27.6697 20.5815L27.9712 18.672C27.9989 18.4943 28.1519 18.3638 28.3319 18.3638H29.1629C30.8932 18.3638 31.8922 17.526 32.1532 15.8663C32.2709 15.1403 32.1577 14.5702 31.8179 14.1705C31.4444 13.7317 30.7822 13.5 29.9032 13.5ZM30.2062 15.96C30.0629 16.9028 29.3422 16.9028 28.6454 16.9028H28.2494L28.5277 15.1417C28.5442 15.0352 28.6364 14.9573 28.7437 14.9573C29.3204 14.9573 29.8274 14.9332 30.0787 15.2272C30.2167 15.39 30.2587 15.6293 30.2062 15.96Z" fill="#333333"/>
<path d="M11.1653 13.5H8.53803C8.35878 13.5 8.20578 13.6305 8.17728 13.8082L7.11528 20.5448C7.09428 20.6775 7.19703 20.7975 7.33203 20.7975H8.58603C8.76603 20.7975 8.91828 20.667 8.94678 20.4893L9.23328 18.672C9.26103 18.4943 9.41403 18.3638 9.59403 18.3638H10.425C12.1553 18.3638 13.1543 17.526 13.4153 15.8663C13.533 15.1403 13.4198 14.5702 13.08 14.1705C12.7065 13.7317 12.0443 13.5 11.1653 13.5ZM11.469 15.96C11.3258 16.9028 10.605 16.9028 9.90828 16.9028H9.51228L9.79053 15.1417C9.80703 15.0352 9.89928 14.9573 10.0065 14.9573H10.188C10.662 14.9573 11.1098 14.9572 11.3408 15.2272C11.4795 15.39 11.5208 15.6293 11.469 15.96Z" fill="#333333"/>
<path d="M19.0177 15.93H17.7599C17.6519 15.93 17.5604 16.0088 17.5439 16.1153L17.4884 16.467C17.3662 16.29 17.1239 15.8123 15.9149 15.8123C14.5252 15.8123 13.3379 16.8653 13.1069 18.3428C12.9869 19.08 13.1572 19.7843 13.5749 20.2755C13.9589 20.727 14.5064 20.9153 15.1597 20.9153C16.2802 20.9153 16.9012 20.1953 16.9012 20.1953L16.8449 20.5448C16.8239 20.6775 16.9267 20.7983 17.0609 20.7983H18.1942C18.3734 20.7983 18.5264 20.6678 18.5549 20.49L19.2352 16.1835C19.2554 16.05 19.1527 15.93 19.0177 15.93ZM17.2642 18.3788C17.1427 19.0973 16.5719 19.5803 15.8444 19.5803C15.4792 19.5803 15.1874 19.4625 14.9999 19.2405C14.8139 19.02 14.7434 18.7065 14.8027 18.357C14.9159 17.6445 15.4957 17.1465 16.2127 17.1465C16.5697 17.1465 16.8599 17.265 17.0512 17.4893C17.2439 17.715 17.3197 18.0308 17.2642 18.3788Z" fill="#333333"/>
<path d="M37.7557 15.93H36.498C36.39 15.93 36.2985 16.0088 36.282 16.1153L36.2265 16.467C36.1042 16.29 35.8612 15.8123 34.653 15.8123C33.2632 15.8123 32.076 16.8653 31.845 18.3428C31.725 19.08 31.8952 19.7843 32.313 20.2755C32.697 20.727 33.2445 20.9153 33.8977 20.9153C35.0182 20.9153 35.6392 20.1953 35.6392 20.1953L35.583 20.5448C35.562 20.6775 35.6647 20.7983 35.799 20.7983H36.9322C37.1115 20.7983 37.2645 20.6678 37.293 20.49L37.9732 16.1835C37.9927 16.05 37.89 15.93 37.7557 15.93ZM36.0022 18.3788C35.8807 19.0973 35.31 19.5803 34.5825 19.5803C34.2172 19.5803 33.9255 19.4625 33.738 19.2405C33.552 19.02 33.4815 18.7065 33.5407 18.357C33.654 17.6445 34.2337 17.1465 34.9507 17.1465C35.3077 17.1465 35.598 17.265 35.7892 17.4893C35.982 17.715 36.0577 18.0308 36.0022 18.3788Z" fill="#333333"/>
<path d="M25.7182 15.9299H24.4537C24.333 15.9299 24.2197 15.9899 24.1515 16.0897L22.407 18.6584L21.6675 16.1902C21.621 16.0357 21.4792 15.9299 21.318 15.9299H20.0752C19.9252 15.9299 19.8195 16.0777 19.8682 16.2194L21.2602 20.3062L19.9507 22.1542C19.848 22.2997 19.9515 22.4999 20.1292 22.4999H21.3922C21.5122 22.4999 21.624 22.4414 21.6922 22.3432L25.8975 16.2742C25.9987 16.1287 25.8945 15.9299 25.7182 15.9299Z" fill="#333333"/>
<path d="M39.2385 13.6852L38.16 20.5448C38.139 20.6775 38.2417 20.7975 38.376 20.7975H39.4605C39.6405 20.7975 39.7927 20.667 39.8212 20.4893L40.8847 13.7527C40.9057 13.62 40.803 13.5 40.668 13.5H39.4545C39.3465 13.5 39.255 13.5787 39.2385 13.6852Z" fill="#333333"/>
<path d="M1.5 31.5V4.5C1.5 2.85 2.85 1.5 4.5 1.5H43.5C45.15 1.5 46.5 2.85 46.5 4.5V31.5C46.5 33.15 45.15 34.5 43.5 34.5H4.5C2.85 34.5 1.5 33.15 1.5 31.5Z" stroke="#333333" stroke-width="2" stroke-miterlimit="10" stroke-linecap="round" stroke-linejoin="round"/>
</svg>
