<svg width="48" height="36" viewBox="0 0 48 36" fill="none" xmlns="http://www.w3.org/2000/svg">
<path d="M19.6643 22.3711H22.0396L23.5268 13.6516H21.1501L19.6643 22.3711Z" fill="#333333"/>
<path d="M28.3184 17.1525C27.4874 16.749 26.9789 16.4798 26.9842 16.0718C26.9842 15.7095 27.4147 15.3218 28.3454 15.3218C29.1067 15.3098 29.7202 15.465 30.3374 15.7568L30.6599 13.8668C30.1882 13.6898 29.4502 13.5 28.5292 13.5C26.1809 13.5 24.5264 14.6827 24.5129 16.3777C24.4994 17.6302 25.6942 18.3292 26.5957 18.7462C27.5204 19.1737 27.8317 19.446 27.8272 19.8278C27.8212 20.412 27.0884 20.679 26.4052 20.679C25.3507 20.679 24.8189 20.5163 23.8619 20.0828L23.5282 22.035C24.0832 22.278 25.1099 22.4895 26.1757 22.5C28.6739 22.5 30.2954 21.3307 30.3142 19.521C30.3224 18.5295 29.6894 17.7743 28.3184 17.1525Z" fill="#333333"/>
<path d="M36.7538 13.6597H34.917C34.3477 13.6597 33.9225 13.8149 33.6727 14.3827L30.1432 22.3732H32.6385C32.6385 22.3732 33.0465 21.2984 33.1387 21.0629C33.4117 21.0629 35.8357 21.0667 36.1822 21.0667C36.2535 21.3719 36.4718 22.3732 36.4718 22.3732H38.6768L36.7538 13.6597ZM33.8227 19.2794C33.921 19.0282 34.8915 16.5374 35.085 16.0102C35.406 17.5132 35.0932 16.0552 35.796 19.2794H33.8227Z" fill="#333333"/>
<path d="M17.6707 13.6583L15.3442 19.6043L15.096 18.3961L14.2627 14.3896C14.1187 13.8376 13.7017 13.6726 13.1857 13.6538H9.35324L9.32324 13.8353C10.2555 14.0611 11.0887 14.3866 11.8192 14.7916L13.932 22.3643L16.4467 22.3613L20.1885 13.6591H17.6707V13.6583Z" fill="#333333"/>
<path d="M1.5 31.5V4.5C1.5 2.85 2.85 1.5 4.5 1.5H43.5C45.15 1.5 46.5 2.85 46.5 4.5V31.5C46.5 33.15 45.15 34.5 43.5 34.5H4.5C2.85 34.5 1.5 33.15 1.5 31.5Z" stroke="#333333" stroke-width="2" stroke-miterlimit="10" stroke-linecap="round" stroke-linejoin="round"/>
</svg>
