<svg width="20" height="24" viewBox="0 0 20 24" fill="none" xmlns="http://www.w3.org/2000/svg">
<path d="M4.05229 19.3266C3.79085 20.5897 3.92157 22.4845 4.05229 23.6213L5.35948 24.0002C6.01308 22.9897 6.92811 21.3476 7.32027 20.0845C7.45099 19.3266 8.2353 16.4213 8.2353 16.4213C8.75818 17.4318 10.3268 18.1897 11.8954 18.1897C16.6013 18.1897 20 13.895 20 8.71603C20 3.78972 15.817 0.000244141 10.3268 0.000244141C3.66013 0.000244141 0 4.4213 0 9.2213C0 11.3687 1.17647 14.1476 3.13726 15.0318C3.3987 15.1581 3.52942 15.0318 3.66013 14.7792C3.66013 14.5266 3.92157 13.516 4.05229 13.0108C4.05229 12.8845 4.05229 12.7581 3.92157 12.6318C3.26798 11.8739 2.7451 10.4845 2.7451 9.2213C2.7451 5.93709 5.35948 2.65288 9.80393 2.65288C13.5948 2.65288 16.3399 5.17919 16.3399 8.84235C16.3399 13.0108 14.1177 15.7897 11.3726 15.7897C9.80393 15.7897 8.62746 14.5266 9.01962 13.0108C9.41177 11.2423 10.3268 9.2213 10.3268 7.95814C10.3268 6.8213 9.67321 5.81077 8.36602 5.81077C6.79739 5.81077 5.4902 7.32656 5.4902 9.47393C5.4902 10.7371 5.88236 11.7476 5.88236 11.7476C5.88236 11.7476 4.31373 18.1897 4.05229 19.3266Z" fill="#333333"/>
</svg>
