<svg width="47" height="36" viewBox="0 0 47 36" fill="none" xmlns="http://www.w3.org/2000/svg">
<path d="M1 31.5V4.5C1.00237 3.70508 1.31921 2.9434 1.8813 2.3813C2.4434 1.81921 3.20508 1.50237 4 1.5H43C43.7949 1.50237 44.5566 1.81921 45.1187 2.3813C45.6808 2.9434 45.9976 3.70508 46 4.5V31.5C45.9976 32.2949 45.6808 33.0566 45.1187 33.6187C44.5566 34.1808 43.7949 34.4976 43 34.5H4C3.20508 34.4976 2.4434 34.1808 1.8813 33.6187C1.31921 33.0566 1.00237 32.2949 1 31.5V31.5Z" stroke="#333333" stroke-width="2" stroke-miterlimit="10" stroke-linecap="round" stroke-linejoin="round"/>
<path opacity="0.85" d="M18.25 26.25C22.8063 26.25 26.5 22.5563 26.5 18C26.5 13.4437 22.8063 9.75 18.25 9.75C13.6937 9.75 10 13.4437 10 18C10 22.5563 13.6937 26.25 18.25 26.25Z" fill="#333333"/>
<path opacity="0.5" d="M28.75 26.25C33.3063 26.25 37 22.5563 37 18C37 13.4437 33.3063 9.75 28.75 9.75C24.1937 9.75 20.5 13.4437 20.5 18C20.5 22.5563 24.1937 26.25 28.75 26.25Z" fill="#333333"/>
</svg>
