<svg width="24" height="24" viewBox="0 0 24 24" fill="none" xmlns="http://www.w3.org/2000/svg">
<path d="M12 2.16224C15.204 2.16224 15.584 2.17424 16.849 2.23224C18.215 2.29424 19.482 2.56824 20.457 3.54324C21.432 4.51824 21.706 5.78524 21.768 7.15124C21.826 8.41624 21.838 8.79624 21.838 12.0002C21.838 15.2042 21.826 15.5842 21.768 16.8492C21.706 18.2152 21.432 19.4822 20.457 20.4572C19.482 21.4322 18.215 21.7062 16.849 21.7682C15.584 21.8262 15.204 21.8382 12 21.8382C8.796 21.8382 8.416 21.8262 7.151 21.7682C5.785 21.7062 4.518 21.4322 3.543 20.4572C2.568 19.4822 2.294 18.2152 2.232 16.8492C2.174 15.5842 2.162 15.2042 2.162 12.0002C2.162 8.79624 2.174 8.41624 2.232 7.15124C2.294 5.78524 2.568 4.51824 3.543 3.54324C4.518 2.56824 5.785 2.29424 7.151 2.23224C8.416 2.17424 8.796 2.16224 12 2.16224ZM12 0.000244141C8.741 0.000244141 8.332 0.0142441 7.052 0.0722441C5.102 0.161244 3.389 0.639244 2.014 2.01424C0.639 3.38924 0.161 5.10224 0.072 7.05224C0.014 8.33224 0 8.74124 0 12.0002C0 15.2592 0.014 15.6682 0.072 16.9482C0.161 18.8982 0.639 20.6112 2.014 21.9862C3.389 23.3612 5.102 23.8392 7.052 23.9282C8.332 23.9862 8.741 24.0002 12 24.0002C15.259 24.0002 15.668 23.9862 16.948 23.9282C18.898 23.8392 20.611 23.3612 21.986 21.9862C23.361 20.6112 23.839 18.8982 23.928 16.9482C23.986 15.6682 24 15.2592 24 12.0002C24 8.74124 23.986 8.33224 23.928 7.05224C23.839 5.10224 23.361 3.38924 21.986 2.01424C20.611 0.639244 18.898 0.161244 16.948 0.0722441C15.668 0.0142441 15.259 0.000244141 12 0.000244141Z" fill="#333333"/>
<path d="M11.9999 5.83813C8.59689 5.83813 5.83789 8.59713 5.83789 12.0001C5.83789 15.4031 8.59689 18.1621 11.9999 18.1621C15.4029 18.1621 18.1619 15.4031 18.1619 12.0001C18.1619 8.59713 15.4029 5.83813 11.9999 5.83813ZM11.9999 16.0001C9.79089 16.0001 7.99989 14.2091 7.99989 12.0001C7.99989 9.79113 9.79089 8.00013 11.9999 8.00013C14.2089 8.00013 15.9999 9.79113 15.9999 12.0001C15.9999 14.2091 14.2089 16.0001 11.9999 16.0001Z" fill="#333333"/>
<path d="M18.4061 7.03418C19.2014 7.03418 19.8461 6.38944 19.8461 5.59412C19.8461 4.79879 19.2014 4.15405 18.4061 4.15405C17.6108 4.15405 16.9661 4.79879 16.9661 5.59412C16.9661 6.38944 17.6108 7.03418 18.4061 7.03418Z" fill="#333333"/>
</svg>
