<svg width="30" height="32" viewBox="0 0 30 32" fill="none" xmlns="http://www.w3.org/2000/svg">
<path d="M25 10.545C25 16.436 15 26.963 15 26.963C15 26.963 5 16.437 5 10.545C5 4.505 10.168 1 15 1C19.832 1 25 4.505 25 10.545Z" stroke="#333333" stroke-width="2" stroke-miterlimit="10" stroke-linecap="round" stroke-linejoin="round"/>
<path d="M15 14C16.6569 14 18 12.6569 18 11C18 9.34315 16.6569 8 15 8C13.3431 8 12 9.34315 12 11C12 12.6569 13.3431 14 15 14Z" stroke="#333333" stroke-width="2" stroke-miterlimit="10" stroke-linecap="round" stroke-linejoin="round"/>
<path d="M7 23.717C3.373 24.44 1 25.641 1 27C1 29.209 7.268 31 15 31C22.732 31 29 29.209 29 27C29 25.641 26.627 24.44 23 23.717" stroke="#333333" stroke-width="2" stroke-miterlimit="10" stroke-linecap="round" stroke-linejoin="round"/>
</svg>
