<svg width="30" height="30" viewBox="0 0 30 30" fill="none" xmlns="http://www.w3.org/2000/svg">
<path d="M19.693 18.2931L17.411 21.1461C13.8767 19.0688 10.9314 16.1234 8.85404 12.5891L11.707 10.3071C12.0413 10.0394 12.2774 9.66855 12.3787 9.25248C12.4801 8.83641 12.4408 8.3985 12.267 8.0071L9.66704 2.1521C9.4806 1.73207 9.15103 1.39191 8.73711 1.19228C8.32319 0.99264 7.85181 0.946507 7.40704 1.0621L2.45704 2.3461C1.99507 2.46672 1.59341 2.75262 1.32818 3.14963C1.06296 3.54664 0.952604 4.02716 1.01804 4.5001C1.88668 10.6859 4.74556 16.4207 9.16249 20.8377C13.5794 25.2546 19.3143 28.1135 25.5 28.9821C25.9728 29.0473 26.4531 28.9368 26.8499 28.6716C27.2467 28.4064 27.5324 28.0049 27.653 27.5431L28.937 22.5931C29.0522 22.1487 29.0059 21.6779 28.8065 21.2645C28.6071 20.851 28.2675 20.5217 27.848 20.3351L21.993 17.7351C21.6018 17.5612 21.1641 17.5216 20.748 17.6225C20.332 17.7234 19.961 17.9592 19.693 18.2931V18.2931Z" stroke="#333333" stroke-width="2" stroke-miterlimit="10" stroke-linecap="round" stroke-linejoin="round"/>
</svg>
